<?xml version="1.0" encoding="UTF-8"?>
<svg version="1.1" xmlns="http://www.w3.org/2000/svg" width="400" height="400">
<path d="M0 0 C1.94391329 1.40947204 1.94391329 1.40947204 4.37890625 2.6875 C7.23506047 4.54577425 8.89248007 6.49847387 10.95703125 9.19921875 C11.60800781 10.04226562 12.25898438 10.8853125 12.9296875 11.75390625 C13.57808594 12.60210937 14.22648438 13.4503125 14.89453125 14.32421875 C15.55324219 15.06929687 16.21195313 15.814375 16.890625 16.58203125 C20.34049724 21.30290906 23.24312604 25.29365618 22.54322815 31.37832642 C21.60962454 35.01419335 20.49368029 38.56343841 19.3046875 42.12109375 C18.87599555 43.48160316 18.4507066 44.84318886 18.02857971 46.20574951 C17.13030934 49.09689102 16.21802132 51.98307189 15.29669189 54.86694336 C13.19116767 61.50379392 11.28219292 68.19774209 9.35621262 74.88838196 C8.2558523 78.70283755 7.14195043 82.51333465 6.02929688 86.32421875 C5.58042664 87.86326422 5.13161489 89.40232675 4.68286133 90.94140625 C4.46017578 91.70505493 4.23749023 92.46870361 4.00805664 93.25549316 C3.33041397 95.57976591 2.65307114 97.90412583 1.97583008 100.22851562 C0.6355986 104.82832054 -0.70538974 109.42790433 -2.046875 114.02734375 C-2.26302397 114.76860064 -2.47917294 115.50985752 -2.70187187 116.27357674 C-4.93724772 123.93721293 -7.18089957 131.59818633 -9.45727539 139.24975586 C-9.82267929 140.47833313 -10.18808319 141.7069104 -10.56455994 142.97271729 C-11.23765076 145.23158536 -11.91236464 147.48997079 -12.58912659 149.7477417 C-14.66930226 156.72109246 -16.55527436 163.71290312 -18.21875 170.796875 C-19.10546875 173.32421875 -19.10546875 173.32421875 -22.10546875 175.32421875 C-26.37140777 175.73311665 -30.64635117 175.69582412 -34.92944336 175.69482422 C-37.03256231 175.69919711 -39.13358051 175.73552354 -41.23632812 175.7734375 C-42.57681576 175.77930625 -43.91731334 175.78327525 -45.2578125 175.78515625 C-46.47460693 175.79337402 -47.69140137 175.8015918 -48.94506836 175.81005859 C-52.72770206 175.2285645 -53.77935832 174.29298727 -56.10546875 171.32421875 C-57.31542969 169.63037109 -57.31542969 169.63037109 -58.33984375 167.91015625 C-58.74033936 167.24564453 -59.14083496 166.58113281 -59.5534668 165.89648438 C-59.98312744 165.17138672 -60.41278809 164.44628906 -60.85546875 163.69921875 C-61.83526892 162.07121202 -62.81578058 160.44363335 -63.796875 158.81640625 C-64.32684082 157.93436523 -64.85680664 157.05232422 -65.40283203 156.14355469 C-68.49917043 151.01643742 -71.64929074 145.92239463 -74.79296875 140.82421875 C-76.16681834 138.59384342 -77.54051423 136.36337341 -78.9140625 134.1328125 C-79.60483887 133.01116699 -80.29561523 131.88952148 -81.00732422 130.73388672 C-83.09647849 127.34008933 -85.18125276 123.94361158 -87.265625 120.546875 C-93.20226176 110.87682389 -99.14742806 101.2155129 -105.23046875 91.63671875 C-109.76717864 84.47196991 -114.27367082 77.28898139 -118.73046875 70.07421875 C-119.3352002 69.10911377 -119.93993164 68.14400879 -120.56298828 67.1496582 C-127.494879 55.86327075 -127.494879 55.86327075 -126.70703125 48.703125 C-122.96496456 34.07912838 -117.13967761 21.7286452 -107.10546875 10.32421875 C-106.48800781 9.51082031 -105.87054688 8.69742188 -105.234375 7.859375 C-95.14396168 -4.15654839 -79.21628728 -11.56261737 -64.10546875 -14.67578125 C-63.23148438 -14.85882813 -62.3575 -15.041875 -61.45703125 -15.23046875 C-38.58479559 -18.26943712 -18.71305603 -13.30113351 0 0 Z " fill="#0380C5" transform="translate(209.10546875,169.67578125)"/>
<path d="M0 0 C15.38075338 6.05068677 28.12763109 15.93219476 35.09765625 31.328125 C39.23737622 41.67156131 42.68394742 54.44063247 38.29394531 65.24023438 C36.42026753 68.38669603 34.39314533 71.32119151 32.2265625 74.2734375 C31.45524648 75.37902479 30.68758394 76.48716869 29.92333984 77.59765625 C28.3229166 79.91468136 26.70571903 82.21843071 25.07421875 84.51367188 C21.39893128 89.70261079 17.8900556 95.00270331 14.37289429 100.29946899 C13.23182962 102.01551628 12.0858427 103.72818285 10.9387207 105.44018555 C6.14398674 112.60942709 1.54279115 119.87080581 -2.89404297 127.26635742 C-5.72865713 131.98118719 -8.71930173 136.53132365 -11.9609375 140.98046875 C-13.48898345 143.08823217 -13.48898345 143.08823217 -14.9609375 145.72265625 C-16.3984375 148.0234375 -16.3984375 148.0234375 -18.3984375 149.0234375 C-19.99652825 149.11862227 -21.59854062 149.15138596 -23.19946289 149.15283203 C-24.19712173 149.15598419 -25.19478058 149.15913635 -26.22267151 149.16238403 C-27.84301552 149.15934769 -27.84301552 149.15934769 -29.49609375 149.15625 C-30.60069443 149.15720673 -31.7052951 149.15816345 -32.84336853 149.15914917 C-35.18114275 149.15983051 -37.51891886 149.15797946 -39.85668945 149.15380859 C-43.44942438 149.14845466 -47.04203458 149.1537578 -50.63476562 149.16015625 C-52.90104194 149.15949556 -55.16731819 149.15821459 -57.43359375 149.15625 C-58.51584732 149.15827423 -59.59810089 149.16029846 -60.71315002 149.16238403 C-61.70765671 149.15923187 -62.70216339 149.15607971 -63.72680664 149.15283203 C-64.60679825 149.15203644 -65.48678986 149.15124084 -66.39344788 149.15042114 C-68.3984375 149.0234375 -68.3984375 149.0234375 -69.3984375 148.0234375 C-68.96002092 140.56266419 -67.08449309 133.78801303 -64.9609375 126.6484375 C-64.41097878 124.7638711 -63.86104278 122.87929792 -63.31201172 120.99446106 C-62.92627262 119.67189914 -62.53953728 118.34962742 -62.15185547 117.02763367 C-60.83650453 112.54194535 -59.54857937 108.04922587 -58.27734375 103.55078125 C-52.88090713 84.45691697 -47.30306328 65.41696336 -41.69036102 46.38575363 C-41.09242573 44.3579414 -40.49493166 42.3299996 -39.89752197 40.30203247 C-37.71990986 32.91218067 -35.53287058 25.525212 -33.32904053 18.14312744 C-32.74029498 16.16945714 -32.15349651 14.19520407 -31.56939697 12.22015381 C-30.88080022 9.89565931 -30.18278894 7.5742836 -29.48046875 5.25390625 C-29.11800049 4.04500732 -28.75553223 2.8361084 -28.38208008 1.59057617 C-25.50116048 -5.9281306 -6.21281758 -2.04591274 0 0 Z " fill="#2E58A6" transform="translate(273.3984375,195.9765625)"/>
<path d="M0 0 C3.68728001 1.66597485 5.10375551 4.60673449 7.03515625 7.9921875 C7.9143285 9.46546252 8.79458178 10.93809286 9.67578125 12.41015625 C10.13275391 13.18407715 10.58972656 13.95799805 11.06054688 14.75537109 C13.39153867 18.65405965 15.84397147 22.47442855 18.28515625 26.3046875 C23.03775025 33.80978737 27.72714158 41.35257788 32.39453125 48.91088867 C36.6679025 55.82777246 40.97186353 62.72513857 45.28515625 69.6171875 C50.38111693 77.76379567 55.46831841 85.9138742 60.47265625 94.1171875 C61.29817138 95.45182645 62.12369258 96.78646163 62.94921875 98.12109375 C63.79076676 99.49454533 64.63191886 100.86823957 65.47265625 102.2421875 C65.87145996 102.88293213 66.27026367 103.52367676 66.68115234 104.18383789 C69.47265625 108.77605318 69.47265625 108.77605318 69.47265625 112.1171875 C62.2177354 112.21972644 54.96300555 112.28912401 47.70751953 112.33691406 C45.24618548 112.35686474 42.7848978 112.38403514 40.32373047 112.41894531 C20.79955429 112.688682 1.6979469 112.88564751 -13.796875 99.09765625 C-15.12785895 97.7666723 -16.43432457 96.41056318 -17.7109375 95.02734375 C-19.97020363 92.65147034 -22.46159324 90.69665649 -25.08203125 88.734375 C-27.12962773 86.44328056 -27.64578121 84.04383239 -28.52734375 81.1171875 C-29.78556494 78.03630945 -31.09487928 74.98044291 -32.40625 71.921875 C-37.22054278 59.87775579 -35.92774898 43.14654081 -31.79296875 31.0625 C-29.79538568 26.41380359 -27.47007542 22.2310819 -24.52734375 18.1171875 C-24.08777344 17.49457031 -23.64820313 16.87195313 -23.1953125 16.23046875 C-18.92469794 10.75374402 -13.25372979 6.9514489 -7.52734375 3.1171875 C-6.69332031 2.52421875 -5.85929687 1.93125 -5 1.3203125 C-2.52734375 0.1171875 -2.52734375 0.1171875 0 0 Z " fill="#00A0C6" transform="translate(68.52734375,231.8828125)"/>
<path d="M0 0 C1.41791408 0.45445964 2.83428046 0.91374944 4.25 1.375 C5.03890625 1.63023437 5.8278125 1.88546875 6.640625 2.1484375 C8.86627958 2.95173667 10.90931672 3.89711662 13 5 C13 5.66 13 6.32 13 7 C14.32 7.66 15.64 8.32 17 9 C17 9.66 17 10.32 17 11 C17.66 11 18.32 11 19 11 C26.98384036 21.29242071 30.32408661 31.01204935 29 44 C26.41143348 56.88433395 20.33958723 65.10972278 10 73 C4.56067146 76.32883069 -0.35753173 78.13075932 -6.76855469 78.11352539 C-7.70922791 78.11344986 -8.64990112 78.11337433 -9.61907959 78.11329651 C-10.62650208 78.10813522 -11.63392456 78.10297394 -12.671875 78.09765625 C-13.70942932 78.0962413 -14.74698364 78.09482635 -15.815979 78.09336853 C-19.12734876 78.08777447 -22.43865071 78.07522303 -25.75 78.0625 C-27.99609277 78.05748423 -30.24218661 78.05292146 -32.48828125 78.04882812 C-37.9922106 78.03780699 -43.49610046 78.02107474 -49 78 C-49.33 77.34 -49.66 76.68 -50 76 C-48.8125 73.78515625 -48.8125 73.78515625 -47 71.0625 C-46.34515625 70.06605469 -45.6903125 69.06960938 -45.015625 68.04296875 C-44.01789063 66.53669922 -44.01789063 66.53669922 -43 65 C-41.91279702 63.29412675 -40.82941115 61.58581427 -39.75 59.875 C-33.80091676 50.52832922 -27.75906364 41.2409955 -21.71875 31.953125 C-20.89117187 30.68057861 -20.89117187 30.68057861 -20.046875 29.38232422 C-18.93800684 27.67789281 -17.82863699 25.97378768 -16.71875 24.27001953 C-14.22154524 20.4334186 -11.73339672 16.59214987 -9.28125 12.7265625 C-8.87084473 12.08098389 -8.46043945 11.43540527 -8.03759766 10.77026367 C-6.95672695 9.06633751 -5.88051494 7.35945861 -4.8046875 5.65234375 C-3.32581473 3.47884892 -1.94541764 1.74604254 0 0 Z " fill="#1B7FB5" transform="translate(323,266)"/>
<path d="M0 0 C1.94091797 0.85668945 1.94091797 0.85668945 2.87890625 2.51025391 C3.08757324 3.23946045 3.29624023 3.96866699 3.51123047 4.7199707 C3.8886438 5.99432983 3.8886438 5.99432983 4.27368164 7.29443359 C4.53511963 8.24310303 4.79655762 9.19177246 5.06591797 10.16918945 C5.49771362 11.65890259 5.49771362 11.65890259 5.93823242 13.17871094 C6.76925428 16.06876011 7.58241124 18.96317312 8.38641357 21.86083984 C8.97830021 23.99124082 9.57468648 26.12034695 10.171875 28.24926758 C12.5379169 36.68931666 14.88717025 45.13384859 17.20159912 53.58821106 C18.14682917 57.0298818 19.11236443 60.46277488 20.13085938 63.88354492 C20.49743652 65.12120605 20.86401367 66.35886719 21.24169922 67.6340332 C21.56952393 68.7180542 21.89734863 69.8020752 22.23510742 70.91894531 C22.902269 73.69582366 23.08380611 76.01633601 22.94091797 78.85668945 C18.58683097 78.35877683 15.84487534 75.50371008 12.62841797 72.79418945 C5.58244233 67.03024505 -1.90443053 62.84264656 -10.05908203 58.85668945 C-10.45382937 51.08016694 -8.96044051 43.7346245 -7.55908203 36.10668945 C-7.08593059 33.50848471 -6.61846752 30.90939086 -6.15283203 28.30981445 C-5.94335938 27.16673828 -5.73388672 26.02366211 -5.51806641 24.84594727 C-4.9579047 21.70179346 -4.9579047 21.70179346 -5.05908203 17.85668945 C-5.33582764 18.59193848 -5.61257324 19.3271875 -5.89770508 20.0847168 C-7.17517293 23.46914256 -8.46081919 26.85040675 -9.74658203 30.23168945 C-10.18164062 31.38797852 -10.61669922 32.54426758 -11.06494141 33.7355957 C-17.9240221 51.72162952 -17.9240221 51.72162952 -21.05908203 54.85668945 C-23.50779977 54.76144447 -25.92958484 54.60812278 -28.37158203 54.41918945 C-38.27128443 53.73270982 -48.14058222 53.76437663 -58.05908203 53.85668945 C-57.72908203 52.20668945 -57.39908203 50.55668945 -57.05908203 48.85668945 C-56.39908203 48.85668945 -55.73908203 48.85668945 -55.05908203 48.85668945 C-55.05908203 48.19668945 -55.05908203 47.53668945 -55.05908203 46.85668945 C-53.42475448 45.37899728 -51.72431835 43.97399626 -49.99658203 42.60668945 C-48.4903125 41.40012695 -48.4903125 41.40012695 -46.95361328 40.16918945 C-45.99841797 39.40606445 -45.04322266 38.64293945 -44.05908203 37.85668945 C-42.76065547 36.78146746 -41.46766684 35.69958649 -40.18408203 34.60668945 C-39.69166016 34.1890332 -39.19923828 33.77137695 -38.69189453 33.34106445 C-37.32298764 32.09660365 -36.00288461 30.79874625 -34.69580078 29.48950195 C-28.47301094 23.27593106 -21.83623139 17.46266907 -15.16845703 11.73168945 C-13.49928574 10.24798164 -11.87254474 8.71655307 -10.26220703 7.16918945 C-9.529375 6.47212891 -9.529375 6.47212891 -8.78173828 5.76098633 C-7.37124427 4.41596618 -5.97267931 3.05846966 -4.57470703 1.70043945 C-2.05908203 -0.14331055 -2.05908203 -0.14331055 0 0 Z M-4.05908203 12.85668945 C-3.05908203 15.85668945 -3.05908203 15.85668945 -3.05908203 15.85668945 Z " fill="#00A0C6" transform="translate(278.05908203125,55.143310546875)"/>
<path d="M0 0 C0.71917856 4.52724668 1.12601835 8.87190191 1.12939453 13.4543457 C1.13254669 14.68864822 1.13569885 15.92295074 1.13894653 17.19465637 C1.1369223 18.50842758 1.13489807 19.82219879 1.1328125 21.17578125 C1.13348694 22.55104082 1.13445814 23.92630028 1.13571167 25.30155945 C1.13717956 28.17020819 1.13506177 31.03882562 1.13037109 33.9074707 C1.12464731 37.58735013 1.12797519 41.26715705 1.13394356 44.94703388 C1.13755081 47.78053844 1.13641029 50.61402568 1.13381577 53.44753075 C1.13314834 54.80513709 1.13396848 56.16274499 1.13629532 57.5203495 C1.13882739 59.41110836 1.13428559 61.30187273 1.12939453 63.19262695 C1.12859894 64.26849564 1.12780334 65.34436432 1.12698364 66.45283508 C1 69 1 69 0 71 C-1.32 71 -2.64 71 -4 71 C-5.82421875 68.91015625 -5.82421875 68.91015625 -7.6875 66.0625 C-12.22567043 59.48470241 -17.30852849 53.46098101 -24 49 C-23.47629373 43.70080268 -22.22542617 39.80829628 -19.83984375 34.97265625 C-19.53051407 34.33887558 -19.22118439 33.70509491 -18.90248108 33.05210876 C-17.92321348 31.0509685 -16.93065957 29.05677599 -15.9375 27.0625 C-15.26668473 25.69770438 -14.59675406 24.33247358 -13.92773438 22.96679688 C-12.29534863 19.63944067 -10.65098853 16.31817256 -9 13 C-11.56682197 15.52439516 -13.9746801 17.96744584 -16.1875 20.8125 C-16.785625 21.534375 -17.38375 22.25625 -18 23 C-18.66 23 -19.32 23 -20 23 C-20.23847656 23.54398438 -20.47695313 24.08796875 -20.72265625 24.6484375 C-22.3263785 27.60085583 -24.30650914 30.02862034 -26.4375 32.625 C-27.21996094 33.58664063 -28.00242187 34.54828125 -28.80859375 35.5390625 C-31 38 -31 38 -34 40 C-38.266655 39.63154965 -41.92945962 37.84603884 -45.8125 36.125 C-50.82571964 33.92538908 -55.84844274 31.85456061 -61 30 C-59.99171274 26.53110402 -58.76385076 25.86370316 -55.5703125 24.02050781 C-54.09463819 23.31842022 -52.61231654 22.63020046 -51.125 21.953125 C-50.32707031 21.57822937 -49.52914063 21.20333374 -48.70703125 20.81707764 C-46.14332865 19.61627652 -43.57188276 18.43316257 -41 17.25 C-39.33021104 16.46985801 -37.66093451 15.68861826 -35.9921875 14.90625 C-31.00745569 12.57619129 -26.00631409 10.28324898 -21 8 C-20.14647949 7.60901123 -19.29295898 7.21802246 -18.41357422 6.81518555 C-15.92452582 5.67738207 -13.4317868 4.54814123 -10.9375 3.421875 C-10.18146484 3.07602356 -9.42542969 2.73017212 -8.64648438 2.37384033 C-3.34583891 0 -3.34583891 0 0 0 Z " fill="#1B7FB5" transform="translate(391,155)"/>
<path d="M0 0 C5.58716393 0.56251843 10.19017786 2.04545439 15.35546875 4.203125 C16.52980217 4.68262604 16.52980217 4.68262604 17.7278595 5.17181396 C20.21752432 6.1904631 22.70249649 7.22003939 25.1875 8.25 C26.83629275 8.9265026 28.4853791 9.60229011 30.13476562 10.27734375 C38.77072163 13.81714276 47.38953868 17.39865823 56 21 C56 22.32 56 23.64 56 25 C55.154375 25.24234375 54.30875 25.4846875 53.4375 25.734375 C45.7895953 27.96204997 45.7895953 27.96204997 38.5625 31.25 C34.77093615 33.11252259 33.13154866 33.56481931 29 33 C26.47265625 30.875 26.47265625 30.875 24.0625 28 C22.77666016 26.49953125 22.77666016 26.49953125 21.46484375 24.96875 C20.65144531 23.9890625 19.83804687 23.009375 19 22 C17.71316954 20.49584903 16.42217538 18.99523872 15.125 17.5 C14.61195312 16.8915625 14.09890625 16.283125 13.5703125 15.65625 C11.8576132 13.84982089 10.00314072 12.47085557 8 11 C8.36875244 11.79172607 8.73750488 12.58345215 9.11743164 13.39916992 C10.48314692 16.34824176 11.83653309 19.30257578 13.18188477 22.26098633 C13.76589056 23.53861031 14.3547151 24.81404331 14.94848633 26.0871582 C15.80261799 27.92071325 16.63787527 29.76302317 17.47265625 31.60546875 C17.98062744 32.71043701 18.48859863 33.81540527 19.01196289 34.95385742 C20.08411025 38.25931397 20.19757978 39.76639647 19 43 C17.66479492 44.60571289 17.66479492 44.60571289 15.98046875 45.97265625 C15.06491211 46.73352539 15.06491211 46.73352539 14.13085938 47.50976562 C13.48955078 48.02216797 12.84824219 48.53457031 12.1875 49.0625 C10.9298152 50.09362132 9.6732758 51.12614153 8.41796875 52.16015625 C7.82290527 52.64371582 7.2278418 53.12727539 6.61474609 53.62548828 C4.82807019 55.0982619 4.82807019 55.0982619 2.73828125 57.37109375 C1 59 1 59 -2 59 C-2.02470469 53.50073576 -2.04286223 48.00150378 -2.05493164 42.50219727 C-2.05996279 40.63109779 -2.06678835 38.76000225 -2.07543945 36.88891602 C-2.08755829 34.20067372 -2.09324047 31.51248336 -2.09765625 28.82421875 C-2.10281754 27.98662521 -2.10797882 27.14903168 -2.11329651 26.28605652 C-2.11362064 22.93624258 -2.06684515 20.20053544 -1 17 C-0.85596652 15.66636297 -0.75409577 14.32781954 -0.68359375 12.98828125 C-0.64169922 12.23095703 -0.59980469 11.47363281 -0.55664062 10.69335938 C-0.51732422 9.90767578 -0.47800781 9.12199219 -0.4375 8.3125 C-0.39431641 7.51521484 -0.35113281 6.71792969 -0.30664062 5.89648438 C-0.20072632 3.93118553 -0.09987449 1.96561504 0 0 Z " fill="#13007C" transform="translate(10,119)"/>
<path d="M0 0 C1.59643555 1.96508789 1.59643555 1.96508789 3.13671875 4.72265625 C3.7097876 5.72941406 4.28285645 6.73617187 4.87329102 7.7734375 C5.47197998 8.85882813 6.07066895 9.94421875 6.6875 11.0625 C7.9394226 13.27252165 9.19202632 15.48215759 10.4453125 17.69140625 C11.0527832 18.77309082 11.66025391 19.85477539 12.28613281 20.96923828 C14.48179283 24.85199091 16.75409796 28.68353592 19.0625 32.5 C19.41779785 33.09280762 19.7730957 33.68561523 20.13916016 34.29638672 C22.04844905 37.47242417 24.03066394 40.58895001 26.0625 43.6875 C28 47 28 47 28 51 C24.28919416 50.37344052 21.08979874 49.32579284 17.6328125 47.84765625 C16.5924585 47.40558838 15.55210449 46.96352051 14.48022461 46.50805664 C13.37300049 46.03102295 12.26577637 45.55398926 11.125 45.0625 C9.41485718 44.32858032 9.41485718 44.32858032 7.67016602 43.57983398 C5.29817492 42.56125286 2.92684503 41.54113071 0.55615234 40.51953125 C-2.88344189 39.04980487 -6.3352682 37.61402248 -9.79296875 36.1875 C-11.88291022 35.31273343 -13.97275825 34.43774358 -16.0625 33.5625 C-17.04911621 33.16232666 -18.03573242 32.76215332 -19.05224609 32.34985352 C-19.95410645 31.96756592 -20.8559668 31.58527832 -21.78515625 31.19140625 C-22.57801025 30.86342041 -23.37086426 30.53543457 -24.18774414 30.19750977 C-26 29 -26 29 -26.81787109 26.9753418 C-27.14652254 23.41083936 -24.81749812 21.55838187 -22.640625 18.92578125 C-19.11131171 15.01534389 -15.49432308 11.20440635 -11.8125 7.4375 C-11.11133057 6.71014648 -10.41016113 5.98279297 -9.68774414 5.23339844 C-9.01348389 4.55696289 -8.33922363 3.88052734 -7.64453125 3.18359375 C-7.03971924 2.57056396 -6.43490723 1.95753418 -5.81176758 1.32592773 C-4 0 -4 0 0 0 Z " fill="#4FA0CA" transform="translate(38,171)"/>
<path d="M0 0 C3.85025879 0.60355408 6.86101159 1.76772603 10.3125 3.5625 C11.19550781 4.01753906 12.07851563 4.47257813 12.98828125 4.94140625 C13.98408203 5.46541016 13.98408203 5.46541016 15 6 C15 6.66 15 7.32 15 8 C15.5775 8.26167969 16.155 8.52335938 16.75 8.79296875 C22.27162821 11.75509222 27.60314138 16.76317629 31 22 C31 23.32 31 24.64 31 26 C29.792229 26.66418945 29.792229 26.66418945 28.56005859 27.34179688 C25.49917434 29.02578701 22.43886453 30.71081264 19.37890625 32.39648438 C18.06825352 33.11823758 16.75738964 33.83960752 15.44628906 34.56054688 C13.53391177 35.61220751 11.62230394 36.66525341 9.7109375 37.71875 C9.07661804 38.06768311 8.44229858 38.41661621 7.78875732 38.77612305 C4.51036321 40.58633921 1.2529593 42.42522836 -1.97949219 44.31640625 C-2.61720551 44.6880188 -3.25491882 45.05963135 -3.91195679 45.44250488 C-5.67288875 46.47244093 -7.42912334 47.51039612 -9.18505859 48.54882812 C-12 50 -12 50 -15 50 C-14.46064659 42.27743982 -12.48664933 35.41408581 -10.125 28.0625 C-9.41901633 25.82429901 -8.71328355 23.58601887 -8.0078125 21.34765625 C-7.66693604 20.27773437 -7.32605957 19.2078125 -6.97485352 18.10546875 C-5.82107246 14.43001294 -4.73649472 10.73680198 -3.67602539 7.03344727 C-2.81202862 4.4345924 -1.56712154 2.23874506 0 0 Z " fill="#0380C5" transform="translate(265,125)"/>
<path d="M0 0 C0.91458984 0.03544922 1.82917969 0.07089844 2.77148438 0.10742188 C7.28460027 0.3273337 11.08987977 0.58285229 15.1875 2.6875 C13.97540832 9.31116848 12.41406891 15.70114726 10.40234375 22.125 C10.01061729 23.39512939 10.01061729 23.39512939 9.61097717 24.69091797 C9.06450547 26.45954037 8.51569142 28.22744065 7.96459961 29.99462891 C7.11890425 32.70705107 6.28054727 35.42166001 5.44335938 38.13671875 C4.90927422 39.86210925 4.37478384 41.58737437 3.83984375 43.3125 C3.46326881 44.52957642 3.46326881 44.52957642 3.0790863 45.77124023 C1.30457219 51.45335562 1.30457219 51.45335562 0.1875 53.6875 C-2.8125 52.6875 -2.8125 52.6875 -4.55834961 49.41210938 C-5.20481625 47.95664547 -5.83950158 46.49591429 -6.46484375 45.03125 C-6.80624893 44.25495239 -7.14765411 43.47865479 -7.49940491 42.67883301 C-8.59301379 40.18598861 -9.67167997 37.68699052 -10.75 35.1875 C-11.47232302 33.53342399 -12.1956194 31.87977268 -12.91992188 30.2265625 C-14.57504353 26.44485701 -16.22092756 22.65931333 -17.85543823 18.86865234 C-18.53131737 17.32831774 -19.22418159 15.79538255 -19.9289856 14.26806641 C-20.29345795 13.47513184 -20.6579303 12.68219727 -21.03344727 11.86523438 C-21.36764175 11.14992554 -21.70183624 10.4346167 -22.04615784 9.69763184 C-23.08515601 6.97231746 -23.10774164 4.56610603 -22.8125 1.6875 C-16.25926222 -1.58911889 -7.11139158 -0.37374484 0 0 Z " fill="#0380C5" transform="translate(238.8125,118.3125)"/>
<path d="M0 0 C-0.78110498 41.23980265 -0.78110498 41.23980265 -3 58 C-4.75390625 57.88671875 -4.75390625 57.88671875 -7 57 C-8.49550124 54.95174677 -9.71354207 53.01636728 -10.9375 50.8125 C-11.72108142 49.4542697 -12.50495436 48.09620755 -13.2890625 46.73828125 C-13.71606445 45.98885254 -14.14306641 45.23942383 -14.58300781 44.46728516 C-17.27431608 39.78114433 -20.05361895 35.14655694 -22.8125 30.5 C-24.4124548 27.79675717 -26.00988651 25.09246668 -27.59228516 22.37890625 C-28.47223557 20.89187245 -29.37481162 19.41773581 -30.31005859 17.96484375 C-32.00116112 15.27995573 -32.99264782 13.43500379 -33.046875 10.2265625 C-31.23627412 6.37565765 -28.01838768 5.69174759 -24.24609375 4.13671875 C-16.08811457 1.27995348 -8.59195152 -0.06794021 0 0 Z " fill="#4FA0CA" transform="translate(81,154)"/>
<path d="M0 0 C3.27365949 0.58367572 4.92934239 1.54579034 7.27734375 3.87890625 C7.87353516 4.47123047 8.46972656 5.06355469 9.08398438 5.67382812 C9.69564453 6.29708984 10.30730469 6.92035156 10.9375 7.5625 C11.54529297 8.15869141 12.15308594 8.75488281 12.77929688 9.36914062 C16.74442035 13.35992833 20.89207716 17.70300943 23 23 C22.62475586 25.23657227 22.62475586 25.23657227 22 27 C11.767328 29.91992913 1.50105622 32.69171356 -8.8125 35.3125 C-9.84375 35.57885254 -10.875 35.84520508 -11.9375 36.11962891 C-13.40123047 36.48773682 -13.40123047 36.48773682 -14.89453125 36.86328125 C-16.19161011 37.19259644 -16.19161011 37.19259644 -17.51489258 37.52856445 C-20.06884941 38.01306103 -22.40694773 38.08447086 -25 38 C-24.46518164 34.00622657 -23.45361531 31.95028612 -20.8125 28.9375 C-16.43490895 23.69076974 -12.52624443 18.17063261 -8.625 12.5625 C-8.0060083 11.67361084 -7.3870166 10.78472168 -6.74926758 9.86889648 C-4.47515652 6.59443964 -2.2114613 3.31719196 0 0 Z " fill="#4FA0CA" transform="translate(358,212)"/>
<path d="M0 0 C6.52578872 0.03137398 12.19452691 1.54868038 18.25 3.8125 C19.25933594 4.1849585 19.25933594 4.1849585 20.2890625 4.56494141 C24.61537018 6.24395064 28.22631905 8.29865385 32 11 C31.32902328 15.19360449 29.1441606 18.40334352 27 22 C26.34 22 25.68 22 25 22 C24.72978027 22.5669458 24.45956055 23.1338916 24.18115234 23.71801758 C22.0059676 27.92046732 19.26697338 31.76818487 16.625 35.6875 C15.75875 37.00717773 15.75875 37.00717773 14.875 38.35351562 C14.31039063 39.18947266 13.74578125 40.02542969 13.1640625 40.88671875 C12.65311035 41.65201904 12.1421582 42.41731934 11.61572266 43.20581055 C9.77971101 45.24462131 8.67846194 45.63897729 6 46 C4.82515506 38.09758595 3.65434613 30.19458591 2.48730469 22.29101562 C2.09112036 19.61538197 1.69135761 16.94034382 1.2890625 14.265625 C1.11117188 13.06421875 0.93328125 11.8628125 0.75 10.625 C0.52570313 9.12839844 0.52570313 9.12839844 0.296875 7.6015625 C0.00482669 5.04229701 -0.05614571 2.57334519 0 0 Z " fill="#4FA0CA" transform="translate(316,194)"/>
<path d="" fill="#0380C5" transform="translate(0,0)"/>
</svg>
